<svg viewBox="0 0 800 800" xmlns="http://www.w3.org/2000/svg"><path d="M641.1958599247739,276.3108612745996 L641.2809949678817,245.1195672296948 M157.17706561131044,553.9790932223887 L157.09084165610062,522.687538282496 M641.1958599247739,276.3108612745996 L667.6751535673184,293.26583794421373 M667.6751535673184,293.26583794421373 L690.5641340510667,311.8730280497704 M690.5641340510667,311.8730280497704 L709.5508583247095,331.88468344873024 M709.5508583247095,331.88468344873024 L724.3746584974594,353.0336426853508 M724.3746584974594,353.0336426853508 L734.8299003802374,375.03675206440147 M734.8299003802374,375.03675206440147 L740.7689647817006,397.5985547352036 M740.7689647817006,397.5985547352036 L742.1046945965481,420.41514999987425 M742.1046945965481,420.41514999987425 L738.8118359224964,443.17827063237615 M738.8118359224964,443.17827063237615 L730.927765283428,465.57939530985425 M730.927765283428,465.57939530985425 L718.5524604065608,487.3139812387838 M718.5524604065608,487.3139812387838 L701.8474671776896,508.0856615138976 M701.8474671776896,508.0856615138976 L681.03395386345,527.6103617270766 M681.03395386345,527.6103617270766 L656.3901201206288,545.6203653899759 M656.3901201206288,545.6203653899759 L628.2474981265323,561.8680666027326 M628.2474981265323,561.8680666027326 L596.9866205692906,576.1295824893382 M596.9866205692906,576.1295824893382 L563.0318926784698,588.2079997370524 M563.0318926784698,588.2079997370524 L526.8456877794647,597.9362271351545 M526.8456877794647,597.9362271351545 L488.9220383151271,605.1795272509979 M488.9220383151271,605.1795272509979 L449.779608393491,609.8374315524039 M449.779608393491,609.8374315524039 L409.95440168512977,611.845281517672 M409.95440168512977,611.845281517672 L369.992159596653,611.1752184096509 M369.992159596653,611.1752184096509 L330.4405451698709,607.8365470539591 M330.4405451698709,607.8365470539591 L291.8414094540059,601.8755973127362 M291.8414094540059,601.8755973127362 L254.7230221072378,593.3750935814575 M254.7230221072378,593.3750935814575 L219.59262343538407,582.4528519748169 M219.59262343538407,582.4528519748169 L186.92925285035204,569.2600736315264 M186.92925285035204,569.2600736315264 L157.17706561131044,553.9790932223887 M641.2809949678817,245.1195672296948 L667.7696700729509,262.06838597319165 M667.7696700729509,262.06838597319165 L690.6667751600071,280.6688234389825 M690.6667751600071,280.6688234389825 L709.6602556240405,300.6732227691281 M709.6602556240405,300.6732227691281 L724.4893494680648,321.81452060872334 M724.4893494680648,321.81452060872334 L734.9483472697511,343.8096668560756 M734.9483472697511,343.8096668560756 L740.8895746610328,366.36331234094854 M740.8895746610328,366.36331234094854 L742.2258404373604,389.1716666841808 M742.2258404373604,389.1716666841808 L738.931878358344,411.9265741111027 M738.931878358344,411.9265741111027 L731.0450748110186,434.3196243883218 M731.0450748110186,434.3196243883218 L718.6654397592183,456.04638393641403 M718.6654397592183,456.04638393641403 L701.9545735052809,476.8105917120612 M701.9545735052809,476.8105917120612 L681.1337203757446,496.32827439130887 M681.1337203757446,496.32827439130887 L656.4811769376861,514.3318104040621 M656.4811769376861,514.3318104040621 L628.3285919079951,530.5736813420717 M628.3285919079951,530.5736813420717 L597.0566326582195,544.8300831939741 M597.0566326582195,544.8300831939741 L563.0898554341754,556.9041718202809 M563.0898554341754,556.9041718202809 L526.8907987801608,566.6289145677761 M526.8907987801608,566.6289145677761 L488.9536722453928,573.8696211293252 M488.9536722453928,573.8696211293252 L449.79732632388755,578.5258580586827 M449.79732632388755,578.5258580586827 L409.95795761936375,580.5329893900191 M409.95795761936375,580.5329893900191 L369.9815041536366,579.8631660984779 M369.9815041536366,579.8631660984779 L330.4158263115574,576.5256897660975 M330.4158263115574,576.5256897660975 L291.80297028576655,570.5668740991464 M291.80297028576655,570.5668740991464 L254.67139574580665,562.0694146210585 M254.67139574580665,562.0694146210585 L219.52852507656806,551.1510862733062 M219.52852507656806,551.1510862733062 L186.8535691614665,537.9630372610392 M186.8535691614665,537.9630372610392 L157.09084165610062,522.687538282496 M157.17706561131044,553.9790932223887 L130.73922190414385,536.8206925365917 M130.73922190414385,536.8206925365917 L107.97234898799013,518.0210459794423 M107.97234898799013,518.0210459794423 L89.18180672183121,497.83827679382756 M89.18180672183121,497.83827679382756 L74.61768662111763,476.54877090810294 M74.61768662111763,476.54877090810294 L64.47162338269322,454.44325863499404 M64.47162338269322,454.44325863499404 L58.87456869576198,431.8227171039665 M58.87456869576198,431.8227171039665 L57.89524209011722,408.99421347850716 M57.89524209011722,408.99421347850716 L61.53968446226702,386.2666569160456 M61.53968446226702,386.2666569160456 L69.75156571572364,363.9466515778756 M69.75156571572364,363.9466515778756 L82.41323617374331,342.3343673268432 M82.41323617374331,342.3343673268432 L99.34771222940134,321.71957809955137 M99.34771222940134,321.71957809955137 L120.32145368701725,302.3779004599638 M120.32145368701725,302.3779004599638 L145.04762301538887,284.56718455079715 M145.04762301538887,284.56718455079715 L173.1902485880271,268.5242926552658 M173.1902485880271,268.5242926552658 L204.36879695552136,254.46206633634185 M204.36879695552136,254.46206633634185 L238.1633009768816,242.5666751163022 M238.1633009768816,242.5666751163022 L274.1200242919125,232.9953426769177 M274.1200242919125,232.9953426769177 L311.7573061224249,225.87434826612582 M311.7573061224249,225.87434826612582 L350.5719205181838,221.29756632670228 M350.5719205181838,221.29756632670228 L390.04553680298716,219.32528165216058 M390.04553680298716,219.32528165216058 L429.65136857357237,219.9834359138479 M429.65136857357237,219.9834359138479 L468.8609673061642,223.2633663253435 M468.8609673061642,223.2633663253435 L507.1509207991346,229.12190956645134 M507.1509207991346,229.12190956645134 L544.0096276577183,237.48186260595048 M544.0096276577183,237.48186260595048 L578.9438471568653,248.2329866073951 M578.9438471568653,248.2329866073951 L611.4851156569468,261.2333057976863 M611.4851156569468,261.2333057976863 L641.1958599247739,276.3108612745996 M157.09084165610062,522.687538282496 L130.64364584312966,505.53529698285826 M130.64364584312966,505.53529698285826 L107.8687348004475,486.74240444741616 M107.8687348004475,486.74240444741616 L89.07157527820004,466.56689255980933 M89.07157527820004,466.56689255980933 L74.50234540778524,445.2850490810798 M74.50234540778524,445.2850490810798 L64.35274520508756,423.1875006757396 M64.35274520508756,423.1875006757396 L58.75376973261717,400.5751167529314 M58.75376973261717,400.5751167529314 L57.77415956263957,377.75485413452975 M57.77415956263957,377.75485413452975 L61.41995432392781,355.03551052195456 M61.41995432392781,355.03551052195456 L69.63480063469973,332.72357900089924 M69.63480063469973,332.72357900089924 L82.30100406694265,311.11912025171307 M82.30100406694265,311.11912025171307 L99.24151566456976,290.5118023966554 M99.24151566456976,290.5118023966554 L120.2227104102808,271.1771409765206 M120.2227104102808,271.1771409765206 L144.9576477450426,253.37289128682121 M144.9576477450426,253.37289128682121 L173.1102363583454,237.3358281963898 M173.1102363583454,237.3358281963898 L204.29980811628303,223.27871448278253 M204.29980811628303,223.27871448278253 L238.10624800412333,211.387650571979 M238.10624800412333,211.387650571979 L274.07566055902174,201.81980165880455 M274.07566055902174,201.81980165880455 L311.7262166577662,194.70139992607233 M311.7262166577662,194.70139992607233 L350.5545148973775,190.1262847776464 M350.5545148973775,190.1262847776464 L390.04204418464025,188.15471848232806 M390.04204418464025,188.15471848232806 L429.6618349252568,188.8126330128208 M429.6618349252568,188.8126330128208 L468.8852548603937,192.09136882171273 M468.8852548603937,192.09136882171273 L507.1887097035845,197.94777872212677 M507.1887097035845,197.94777872212677 L544.0604198531971,206.30468851553098 M544.0604198531971,206.30468851553098 L579.0069724194436,217.05190048463842 M579.0069724194436,217.05190048463842 L611.5597397805836,230.04749172399784 M611.5597397805836,230.04749172399784 L641.2809949678817,245.1195672296948 M140.94114132948016,374.8895669938007 L140.84952700288318,343.6625350270827 M102.73741469612088,369.01707102400974 L102.63230170363715,337.79216361558724 M140.94114132948016,374.8895669938007 L139.14415655149503,377.4272015738466 M139.14415655149503,377.4272015738466 L136.34102691190088,379.6469247171571 M136.34102691190088,379.6469247171571 L132.69459644275548,381.41962150209076 M132.69459644275548,381.41962150209076 L128.416818080489,382.64214481572293 M128.416818080489,382.64214481572293 L123.75642399627219,383.2433516576599 M123.75642399627219,383.2433516576599 L118.98445984606747,383.18825004448547 M118.98445984606747,383.18825004448547 L114.37843746337575,382.48004572167827 M114.37843746337575,382.48004572167827 L110.20625291480417,381.1599552085195 M110.20625291480417,381.1599552085195 L106.71048313746473,379.304813343322 M106.71048313746473,379.304813343322 L104.09429531082958,377.0225398268953 M104.09429531082958,377.0225398268953 L102.50965372111204,374.4458800321161 M102.50965372111204,374.4458800321161 L102.04850330173372,371.7246695850651 M102.04850330173372,371.7246695850651 L102.73741469612088,369.01707102400974 M140.84952700288318,343.6625350270827 L139.05190126088308,346.1992517116168 M139.05190126088308,346.1992517116168 L136.2477753436806,348.4181720376406 M136.2477753436806,348.4181720376406 L132.6000511377083,350.19022774063905 M132.6000511377083,350.19022774063905 L128.32075679174187,351.4123089679236 M128.32075679174187,351.4123089679236 L123.65871266917821,352.01329841156684 M123.65871266917821,352.01329841156684 L118.88506045868627,351.958216723066 M118.88506045868627,351.958216723066 L114.27741023673866,351.2502684904253 M114.27741023673866,351.2502684904253 L110.10375281286821,349.93065535017155 M110.10375281286821,349.93065535017155 L106.60675079869645,348.07618439156806 M106.60675079869645,348.07618439156806 L103.98964299429042,345.79473632910566 M103.98964299429042,345.79473632910566 L102.40444709392091,343.21900856346844 M102.40444709392091,343.21900856346844 L101.9431401348287,340.4987825491517 M101.9431401348287,340.4987825491517 L102.63230170363715,337.79216361558724 M102.73741469612088,369.01707102400974 L104.5361687732157,366.48041383776996 M104.5361687732157,366.48041383776996 L107.34006949000718,364.26202902419425 M107.34006949000718,364.26202902419425 L110.98609617095917,362.4907249122971 M110.98609617095917,362.4907249122971 L115.26238838029064,361.26932956686016 M115.26238838029064,361.26932956686016 L119.92055440628423,360.6687275859024 M119.92055440628423,360.6687275859024 L124.6900590191974,360.723772386213 M124.6900590191974,360.723772386213 L129.293953822974,361.4312712360888 M129.293953822974,361.4312712360888 L133.46483016964152,362.7501692301258 M133.46483016964152,362.7501692301258 L136.9604108034418,364.6039047324476 M136.9604108034418,364.6039047324476 L139.5775718791631,366.884880210993 M139.5775718791631,366.884880210993 L141.16412615780882,369.46064765958766 M141.16412615780882,369.46064765958766 L141.62769052238275,372.1815758826314 M141.62769052238275,372.1815758826314 L140.94114132948016,374.8895669938007 M102.63230170363715,337.79216361558724 L104.43169799429671,335.2564243168165 M104.43169799429671,335.2564243168165 L107.23659553120513,333.0388423095146 M107.23659553120513,333.0388423095146 L110.88391566016998,331.26817926809224 M110.88391566016998,331.26817926809224 L115.16172279922671,330.0472259997212 M115.16172279922671,330.0472259997212 L119.82153728588446,329.44684141207995 M119.82153728588446,329.44684141207995 L124.59272821912606,329.50186628818415 M124.59272821912606,329.50186628818415 L129.19824935851784,330.20910905369874 M129.19824935851784,330.20910905369874 L133.37059765763905,331.5275296846439 M133.37059765763905,331.5275296846439 L136.8674103976262,333.38059429194436 M136.8674103976262,333.38059429194436 L139.48549214260436,335.6607443272071 M139.48549214260436,335.6607443272071 L141.07260208711364,338.2355797540028 M141.07260208711364,338.2355797540028 L141.53632469986883,340.95552354663454 M141.53632469986883,340.95552354663454 L140.84952700288318,343.6625350270827 M697.795844683103,460.4865224602075 L697.9013986771083,429.22858653152184 M659.442191698394,454.59098053678036 L659.5341408516779,423.33516933205846 M697.795844683103,460.4865224602075 L696.0277640511242,463.0341166653264 M696.0277640511242,463.0341166653264 L693.2475031061631,465.2625521813085 M693.2475031061631,465.2625521813085 L689.6165751375281,467.04220708765735 M689.6165751375281,467.04220708765735 L685.3460306773691,468.2695291679531 M685.3460306773691,468.2695291679531 L680.6841807714675,468.8730959745126 M680.6841807714675,468.8730959745126 L675.9021557842202,468.81777806527464 M675.9021557842202,468.81777806527464 L671.2780530638418,468.1067937791298 M671.2780530638418,468.1067937791298 L667.0808209571003,466.7815215442027 M667.0808209571003,466.7815215442027 L663.554493983577,464.91909799764454 M663.554493983577,464.91909799764454 L660.9040165910008,462.6278666763009 M660.9040165910008,462.6278666763009 L659.283346913659,460.0410941900937 M659.283346913659,460.0410941900937 L658.7865242393341,457.3092043793043 M658.7865242393341,457.3092043793043 L659.442191698394,454.59098053678036 M697.9013986771083,429.22858653152184 L696.1326975539232,431.7752627705528 M696.1326975539232,431.7752627705528 L693.3514565301007,434.00289540801475 M693.3514565301007,434.00289540801475 L689.7192458060986,435.7819091838631 M689.7192458060986,435.7819091838631 L685.4471904866866,437.0087891444922 M685.4471904866866,437.0087891444922 L680.7836895112885,437.6121385364246 M680.7836895112885,437.6121385364246 L675.9999693370371,437.5568405533561 M675.9999693370371,437.5568405533561 L671.3742259701892,436.8461123766253 M671.3742259701892,436.8461123766253 L667.1755032463489,435.52131755060736 M667.1755032463489,435.52131755060736 L663.647922392666,433.6595649615206 M663.647922392666,433.6595649615206 L660.9965007368526,431.3691591571808 M660.9965007368526,431.3691591571808 L659.3752512337758,428.7833187718808 M659.3752512337758,428.7833187718808 L658.8782467583774,426.0524134703011 M658.8782467583774,426.0524134703011 L659.5341408516779,423.33516933205846 M659.442191698394,454.59098053678036 L661.2120610861648,452.0443694846178 M661.2120610861648,452.0443694846178 L663.9931132685444,449.81728018428316 M663.9931132685444,449.81728018428316 L667.6236536943195,448.0390261570932 M667.6236536943195,448.0390261570932 L671.8927206103247,446.8128386913809 M671.8927206103247,446.8128386913809 L676.5523414580821,446.20988030985563 M676.5523414580821,446.20988030985563 L681.3318965285009,446.265141071468 M681.3318965285009,446.265141071468 L685.9538542885705,446.97541572778505 M685.9538542885705,446.97541572778505 L690.1497577920684,448.2994884168455 M690.1497577920684,448.2994884168455 L693.6758768745588,450.16049731374005 M693.6758768745588,450.16049731374005 L696.3273147172577,452.45042294870393 M696.3273147172577,452.45042294870393 L697.9498931652342,455.03629783070716 M697.9498931652342,455.03629783070716 L698.4491356447872,457.7679037545255 M698.4491356447872,457.7679037545255 L697.795844683103,460.4865224602075 M659.5341408516779,423.33516933205846 L661.3046320008768,420.78947623993867 M661.3046320008768,420.78947623993867 L664.086664826046,418.5631898098461 M664.086664826046,418.5631898098461 L667.7184877356342,416.78557690454284 M667.7184877356342,416.78557690454284 L671.9890644660641,415.55983155152035 M671.9890644660641,415.55983155152035 L676.650334804573,414.9570905808811 M676.650334804573,414.9570905808811 L681.4315833110095,415.01233141667564 M681.4315833110095,415.01233141667564 L686.0551801954405,415.7223499679421 M686.0551801954405,415.7223499679421 L690.2525733715165,417.04594525546906 M690.2525733715165,417.04594525546906 L693.7799461836023,418.90628320359076 M693.7799461836023,418.90628320359076 L696.4323289674264,421.1953833295795 M696.4323289674264,421.1953833295795 L698.0554885921863,423.78032611619494 M698.0554885921863,423.78032611619494 L698.5549145875063,426.51094753254927 M698.5549145875063,426.51094753254927 L697.9013986771083,429.22858653152184 M330.72495961211786,266.48359249239536 L330.70053339475936,235.29586977246424 M320.54278500816713,244.68384421846537 L320.51478028881644,213.50404932204412 M330.72495961211786,266.48359249239536 L326.0109957584487,266.8660020693186 M326.0109957584487,266.8660020693186 L321.2750275596199,266.59240938031405 M321.2750275596199,266.59240938031405 L316.79248285951246,265.67872523771115 M316.79248285951246,265.67872523771115 L312.8240560252052,264.1781339301777 M312.8240560252052,264.1781339301777 L309.60045414135124,262.17795692483935 M309.60045414135124,262.17795692483935 L307.3089785863367,259.79455058046676 M307.3089785863367,259.79455058046676 L306.08271374811574,257.16652694264246 M306.08271374811574,257.16652694264246 L305.99274053835234,254.4466934046306 M305.99274053835234,254.4466934046306 L307.0440762545943,251.7931057486618 M307.0440762545943,251.7931057486618 L309.1754316089458,249.35993516711017 M309.1754316089458,249.35993516711017 L312.26281813312266,247.288490852329 M312.26281813312266,247.288490852329 L316.12676561143707,245.6990402039243 M316.12676561143707,245.6990402039243 L320.54278500816713,244.68384421846537 M330.70053339475936,235.29586977246424 L325.9849061053168,235.67814034878376 M325.9849061053168,235.67814034878376 L321.24726709593267,235.40464710670497 M321.24726709593267,235.40464710670497 L316.7631414515741,234.49129508365917 M316.7631414515741,234.49129508365917 L312.79331554052857,232.9912492628007 M312.79331554052857,232.9912492628007 L309.5685778125073,230.9917994074774 M309.5685778125073,230.9917994074774 L307.27629563584526,228.60925961800413 M307.27629563584526,228.60925961800413 L306.04960020575936,225.9821915792764 M306.04960020575936,225.9821915792764 L305.95959732893283,223.26334714196187 M305.95959732893283,223.26334714196187 L307.0113058786045,220.61072461103254 M307.0113058786045,220.61072461103254 L309.1434147656869,218.17843908779338 M309.1434147656869,218.17843908779338 L312.2318916421486,216.1077483300695 M312.2318916421486,216.1077483300695 L316.0972028983432,214.51887594454683 M316.0972028983432,214.51887594454683 L320.51478028881644,213.50404932204412 M320.54278500816713,244.68384421846537 L325.25439608401433,244.3018240570791 M325.25439608401433,244.3018240570791 L329.98796545479314,244.57513677567002 M329.98796545479314,244.57513677567002 L334.468614813605,245.48793568691005 M334.468614813605,245.48793568691005 L338.4360840027371,246.9872393064393 M338.4360840027371,246.9872393064393 L341.65988531560436,248.98602116171995 M341.65988531560436,248.98602116171995 L343.952671683286,251.36824450149655 M343.952671683286,251.36824450149655 L345.1810584382038,253.99556829284302 M345.1810584382038,253.99556829284302 L345.27347854734614,256.71534547127743 M345.27347854734614,256.71534547127743 L344.22435417095915,259.3695331635661 M344.22435417095915,259.3695331635661 L342.0944680007867,261.8038227167575 M342.0944680007867,261.8038227167575 L339.00747193295524,263.8766485969547 M339.00747193295524,263.8766485969547 L335.14274673658207,265.4674269049303 M335.14274673658207,265.4674269049303 L330.72495961211786,266.48359249239536 M320.51478028881644,213.50404932204412 L325.22805314008536,213.12216815695626 M325.22805314008536,213.12216815695626 L329.9632916289781,213.39538143171694 M329.9632916289781,213.39538143171694 L334.4455205952239,214.30784823318777 M334.4455205952239,214.30784823318777 L338.414388186157,215.80660638027967 M338.414388186157,215.80660638027967 L341.639325484749,217.80466110097166 M341.639325484749,217.80466110097166 L343.9329193996987,220.18601789892935 M343.9329193996987,220.18601789892935 L345.1617382441248,222.81238609891724 M345.1617382441248,222.81238609891724 L345.2541897468933,225.53117417727728 M345.2541897468933,225.53117417727728 L344.20469409703367,228.18439673789194 M344.20469409703367,228.18439673789194 L342.0740554301106,230.61780122039872 M342.0740554301106,230.61780122039872 L338.9859692846676,232.68987352826284 M338.9859692846676,232.68987352826284 L335.1198797608573,234.28007355867643 M335.1198797608573,234.28007355867643 L330.70053339475936,235.29586977246424 M479.99048318795786,586.0572857125339 L480.01892892132247,554.754228388314 M469.65837849822566,563.9365411460137 L469.6831395494723,532.6414139471598 M479.99048318795786,586.0572857125339 L475.2432512895456,586.445327632815 M475.2432512895456,586.445327632815 L470.4715893500638,586.1677053116991 M470.4715893500638,586.1677053116991 L465.9530025558443,585.240564083533 M465.9530025558443,585.240564083533 L461.9502827586335,583.7178721190751 M461.9502827586335,583.7178721190751 L458.696131582784,581.6882377728969 M458.696131582784,581.6882377728969 L456.37962577465646,579.2697319145593 M456.37962577465646,579.2697319145593 L455.13530325345135,576.6030086287735 M455.13530325345135,576.6030086287735 L455.03529194263746,573.8431259585766 M455.03529194263746,573.8431259585766 L456.08518938164474,571.1504670683431 M456.08518938164474,571.1504670683431 L458.22378692524785,568.6814727734718 M458.22378692524785,568.6814727734718 L461.3266730550541,566.5795320575119 M461.3266730550541,566.5795320575119 L465.2134758090963,564.9666820525088 M465.2134758090963,564.9666820525088 L469.65837849822566,563.9365411460137 M480.01892892132247,554.754228388314 L475.27001002122876,555.1421312691306 M475.27001002122876,555.1421312691306 L470.49665198685915,554.8646084227378 M470.49665198685915,554.8646084227378 L465.9764587182567,553.9377994071529 M465.9764587182567,553.9377994071529 L461.9723155550518,552.4156530827981 M461.9723155550518,552.4156530827981 L458.7170068999242,550.3867460923966 M458.7170068999242,550.3867460923966 L456.39967674656145,547.9691070360145 M456.39967674656145,547.9691070360145 L455.15491085019113,545.3033396240959 M455.15491085019113,545.3033396240959 L455.054862769622,542.5444463415703 M455.054862769622,542.5444463415703 L456.105132029451,539.8527528589125 M456.105132029451,539.8527528589125 L458.24448823897654,537.3846438836365 M458.24448823897654,537.3846438836365 L461.34847569943463,535.2834569488435 M461.34847569943463,535.2834569488435 L465.23665841587507,533.6711853797264 M465.23665841587507,533.6711853797264 L469.6831395494723,532.6414139471598 M469.65837849822566,563.9365411460137 L474.4032243285774,563.5488972739367 M474.4032243285774,563.5488972739367 L479.1724511444475,563.8262334181804 M479.1724511444475,563.8262334181804 L483.6891116112359,564.7524697909405 M483.6891116112359,564.7524697909405 L487.69085518528215,566.2738455215856 M487.69085518528215,566.2738455215856 L490.94520387619576,568.3020537896514 M490.94520387619576,568.3020537896514 L493.2630356854722,570.7193504182353 M493.2630356854722,570.7193504182353 L494.50950893496383,573.3853583431621 M494.50950893496383,573.3853583431621 L494.612002979242,576.1451834043878 M494.612002979242,576.1451834043878 L493.5643515276971,578.8384556327042 M493.5643515276971,578.8384556327042 L491.4272486919842,581.3085937048734 M491.4272486919842,581.3085937048734 L488.3247635711719,583.4119466131563 M488.3247635711719,583.4119466131563 L484.4371762632057,585.0261537096387 M484.4371762632057,585.0261537096387 L479.99048318795786,586.0572857125339 M469.6831395494723,532.6414139471598 L474.4296706857838,532.2539091132359 M474.4296706857838,532.2539091132359 L479.20059186553715,532.5311457836995 M479.20059186553715,532.5311457836995 L483.7188574369693,533.4570499468591 M483.7188574369693,533.4570499468591 L487.7220236823335,534.9778800417375 M487.7220236823335,534.9778800417375 L490.977529992049,537.005360958725 M490.977529992049,537.005360958725 L493.29618708831845,539.4217907893369 M493.29618708831845,539.4217907893369 L494.5431052412301,542.0868428427536 M494.5431052412301,542.0868428427536 L494.64563781989926,544.8456785164976 M494.64563781989926,544.8456785164976 L493.59761614430204,547.5379853352179 M493.59761614430204,547.5379853352179 L491.4597557057654,550.0072380840232 M491.4597557057654,550.0072380840232 L488.35616954018656,552.1098372064869 M488.35616954018656,552.1098372064869 L484.46720171300257,553.7234658626126 M484.46720171300257,553.7234658626126 L480.01892892132247,554.754228388314 M589.2680473380574,306.1004150672809 L589.3349024905178,274.89830476585155 M617.1405733139118,290.11071570320587 L617.2172434105855,258.9144092974069 M589.2680473380574,306.1004150672809 L586.3202812838122,303.954129150448 M586.3202812838122,303.954129150448 L584.3543048435597,301.46805458031923 M584.3543048435597,301.46805458031923 L583.4842165185919,298.78677416660787 M583.4842165185919,298.78677416660787 L583.760383706122,296.06615626806087 M583.760383706122,296.06615626806087 L585.1665644787681,293.4642912999689 M585.1665644787681,293.4642912999689 L587.6208592959588,291.1323247309565 M587.6208592959588,291.1323247309565 L590.980515440023,289.20568618522583 M590.980515440023,289.20568618522583 L595.0503126029416,287.7962070490489 M595.0503126029416,287.7962070490489 L599.5938077187129,286.9857064851975 M599.5938077187129,286.9857064851975 L604.3471168257583,286.8212223373887 M604.3471168257583,286.8212223373887 L609.0342159580057,287.31229010649855 M609.0342159580057,287.31229010649855 L613.3829049069036,288.4304149575155 M613.3829049069036,288.4304149575155 L617.1405733139118,290.11071570320587 M589.3349024905178,274.89830476585155 L586.386092201506,272.7527976611781 M586.386092201506,272.7527976611781 L584.4194178027271,270.2676252938958 M584.4194178027271,270.2676252938958 L583.5490182540007,267.587318035929 M583.5490182540007,267.587318035929 L583.8252789003111,264.8676876894574 M583.8252789003111,264.8676876894574 L585.2319522413782,262.2667672796756 M585.2319522413782,262.2667672796756 L587.6871099865655,259.93564738058774 M587.6871099865655,259.93564738058774 L591.0479491916044,258.00970840828734 M591.0479491916044,258.00970840828734 L595.1191808037381,256.60074110009043 M595.1191808037381,256.60074110009043 L599.6642784538981,255.79053487007667 M599.6642784538981,255.79053487007667 L604.4192651668641,255.62611045609788 M604.4192651668641,255.62611045609788 L609.1080196316718,256.11699989103096 M609.1080196316718,256.11699989103096 L613.458245576749,257.23471870293815 M613.458245576749,257.23471870293815 L617.2172434105855,258.9144092974069 M617.1405733139118,290.11071570320587 L620.0889201861994,292.25563861937997 M620.0889201861994,292.25563861937997 L622.0565187546058,294.7406624319499 M622.0565187546058,294.7406624319499 L622.9288988944852,297.42144505313996 M622.9288988944852,297.42144505313996 L622.655168183348,300.1422321600695 M622.655168183348,300.1422321600695 L621.2510103868487,302.7448945748508 M621.2510103868487,302.7448945748508 L618.7978616017085,305.0781041448695 M618.7978616017085,305.0781041448695 L615.4382120039113,307.0061464819605 M615.4382120039113,307.0061464819605 L611.3672804018129,308.416868620566 M611.3672804018129,308.416868620566 L606.8217697471828,309.2281666327108 M606.8217697471828,309.2281666327108 L602.066025741685,309.3928199856209 M602.066025741685,309.3928199856209 L597.3766301517774,308.901254424526 M597.3766301517774,308.901254424526 L593.0263092749401,307.78207882051015 M593.0263092749401,307.78207882051015 L589.2680473380574,306.1004150672809 M617.2172434105855,258.9144092974069 L620.1666349256188,261.0585534150837 M620.1666349256188,261.0585534150837 L622.1349325965105,263.54267503534004 M622.1349325965105,263.54267503534004 L623.00762557801,266.22248450577456 M623.00762557801,266.22248450577456 L622.7338031292254,268.94228405893296 M622.7338031292254,268.94228405893296 L621.3291541944236,271.5440019074109 M621.3291541944236,271.5440019074109 L618.8751432927636,273.87636479504573 M618.8751432927636,273.87636479504573 L615.5143106409282,275.8037075446356 M615.5143106409282,275.8037075446356 L611.4419437904216,277.2139178428017 M611.4419437904216,277.2139178428017 L606.8948291791655,278.02492151311543 M606.8948291791655,278.02492151311543 L602.1374058482863,278.18951513049944 M602.1374058482863,278.18951513049944 L597.4463533030369,277.6981279085711 M597.4463533030369,277.6981279085711 L593.0944942756776,276.57935835419715 M593.0944942756776,276.57935835419715 L589.3349024905178,274.89830476585155 M181.52450018401217,540.0116415661865 L181.44694807194583,508.72510019004045 M209.6968822502121,523.8499230337999 L209.62935743707382,492.5691867883465 M181.52450018401217,540.0116415661865 L178.58110050489773,537.8422619429914 M178.58110050489773,537.8422619429914 L176.62795478426523,535.3294390255658 M176.62795478426523,535.3294390255658 L175.77841330196085,532.6193117158666 M175.77841330196085,532.6193117158666 L176.081646824874,529.869425532341 M176.081646824874,529.869425532341 L177.51983848256225,527.2395715407791 M177.51983848256225,527.2395715407791 L180.0092271134282,524.8825207557784 M180.0092271134282,524.8825207557784 L183.40502022049276,522.9351589982497 M183.40502022049276,522.9351589982497 L187.50989881125062,521.5105198790629 M187.50989881125062,521.5105198790629 L192.08538285536275,520.6913020103857 M192.08538285536275,520.6913020103857 L196.8657317572509,520.5250487801738 M196.8657317572509,520.5250487801738 L201.57335262752957,521.0213981684692 M201.57335262752957,521.0213981684692 L205.93485430520792,522.1515490980796 M205.93485430520792,522.1515490980796 L209.6968822502121,523.8499230337999 M181.44694807194583,508.72510019004045 L178.50250725385652,506.5564995409076 M178.50250725385652,506.5564995409076 L176.54867266629333,504.04457901536625 M176.54867266629333,504.04457901536625 L175.6988345166256,501.3354250671021 M175.6988345166256,501.3354250671021 L176.00218067087357,498.58652664627783 M176.00218067087357,498.58652664627783 L177.44088756933374,495.95761741626603 M177.44088756933374,495.95761741626603 L179.9311639813845,493.60141348484905 M179.9311639813845,493.60141348484905 L183.32816573887538,491.65475145355754 M183.32816573887538,491.65475145355754 L187.43450361883455,490.2306242747544 M187.43450361883455,490.2306242747544 L192.01161284627568,489.4117008047854 M192.01161284627568,489.4117008047854 L196.79365849832075,489.24550732158957 M196.79365849832075,489.24550732158957 L201.50294923073224,489.7416783363627 M201.50294923073224,489.7416783363627 L205.8659969768984,490.87142313751116 M205.8659969768984,490.87142313751116 L209.62935743707382,492.5691867883465 M209.6968822502121,523.8499230337999 L212.64088187904522,526.0179176022905 M212.64088187904522,526.0179176022905 L214.59567711071043,528.5296727603647 M214.59567711071043,528.5296727603647 L215.44753976871925,531.2392942230057 M215.44753976871925,531.2392942230057 L215.14676733474553,533.9893523527918 M215.14676733474553,533.9893523527918 L213.7106128791188,536.6200166941367 M213.7106128791188,536.6200166941367 L211.22237086053917,538.9783305925339 M211.22237086053917,538.9783305925339 L207.82657110144885,540.9271188554831 M207.82657110144885,540.9271188554831 L203.7205341181414,542.3530210895121 M203.7205341181414,542.3530210895121 L199.14300531422458,543.1730493096036 M199.14300531422458,543.1730493096036 L194.3601937196072,543.3394744827417 M194.3601937196072,543.3394744827417 L189.65025639125057,542.8426192479326 M189.65025639125057,542.8426192479326 L185.28711516092966,541.7114005636031 M185.28711516092966,541.7114005636031 L181.52450018401217,540.0116415661865 M209.62935743707382,492.5691867883465 L212.57439863318794,494.7364023887875 M212.57439863318794,494.7364023887875 L214.5298839048361,497.24725515961273 M214.5298839048361,497.24725515961273 L215.38204487926475,499.9559032630146 M215.38204487926475,499.9559032630146 L215.08116156123933,502.704973629353 M215.08116156123933,502.704973629353 L213.64449331007313,505.33469320563006 M213.64449331007313,505.33469320563006 L211.1553643224019,507.69216024496006 M211.1553643224019,507.69216024496006 L207.75835590579885,509.6402487754795 M207.75835590579885,509.6402487754795 L203.65085880864723,511.0656390636418 M203.65085880864723,511.0656390636418 L199.07170336811768,511.8853728815069 M199.07170336811768,511.8853728815069 L194.28719327435172,512.0517383068828 M194.28719327435172,512.0517383068828 L189.57558443983146,511.5550614477919 M189.57558443983146,511.5550614477919 L185.2108959785793,510.4242488965595 M185.2108959785793,510.4242488965595 L181.44694807194583,508.72510019004045 M385.9417607232761,422.74309749227905 L385.93679865614473,391.4987738401165 M413.9636191969544,406.6677301931356 L413.9685776143431,375.4292111750998 M385.9417607232761,422.74309749227905 L382.9961531882789,420.58530641698013 M382.9961531882789,420.58530641698013 L381.0365376777176,418.0859148309637 M381.0365376777176,418.0859148309637 L380.1766616516531,415.3902688492958 M380.1766616516531,415.3902688492958 L380.46629724306183,412.6550723365578 M380.46629724306183,412.6550723365578 L381.8884049693044,410.03927075068907 M381.8884049693044,410.03927075068907 L384.3601643087494,407.69481595084767 M384.3601643087494,407.69481595084767 L387.7378258070217,405.75785200038536 M387.7378258070217,405.75785200038536 L391.8250928944881,404.34082683776785 M391.8250928944881,404.34082683776785 L396.38452649780197,403.5259868484897 M396.38452649780197,403.5259868484897 L401.15132284748563,403.3606185157402 M401.15132284748563,403.3606185157402 L405.84866156320436,403.8543165002621 M405.84866156320436,403.8543165002621 L410.20374768951257,404.97843375020864 M410.20374768951257,404.97843375020864 L413.9636191969544,406.6677301931356 M385.93679865614473,391.4987738401165 L382.9901484023181,389.34176167568984 M382.9901484023181,389.34176167568984 L381.02983942548826,386.84327240440456 M381.02983942548826,386.84327240440456 L380.16965938891,384.14859970140566 M380.16965938891,384.14859970140566 L380.45939795261427,381.4143908675753 M380.45939795261427,381.4143908675753 L381.8820095022107,378.7995339604771 M381.8820095022107,378.7995339604771 L384.35464411311216,376.4559259385498 M384.35464411311216,376.4559259385498 L387.73350139339044,374.5196616542684 M387.73350139339044,374.5196616542684 L391.82221527925884,373.1031483850864 M391.82221527925884,373.1031483850864 L396.38326268412266,372.28860276751084 M396.38326268412266,372.28860276751084 L401.15174617321725,372.12329417756723 M401.15174617321725,372.12329417756723 L405.85074746367314,372.6168138045687 M405.85074746367314,372.6168138045687 L410.2073751168554,373.74052496111256 M410.2073751168554,373.74052496111256 L413.9685776143431,375.4292111750998 M413.9636191969544,406.6677301931356 L416.9098170575859,408.82414729690623 M416.9098170575859,408.82414729690623 L418.87106830870545,411.3224796716925 M418.87106830870545,411.3224796716925 L419.7332507618816,414.0176238549742 M419.7332507618816,414.0176238549742 L419.4460639094101,416.75299093816307 M419.4460639094101,416.75299093816307 L418.02598625726404,419.3695963876323 M418.02598625726404,419.3695963876323 L415.5553732614587,421.7153041887763 M415.5553732614587,421.7153041887763 L412.17771176326744,423.6536832307885 M412.17771176326744,423.6536832307885 L408.0892983322534,425.0719613952119 M408.0892983322534,425.0719613952119 L403.52783465478547,425.8876052479781 M403.52783465478547,425.8876052479781 L398.75858956600734,426.0531441506948 M398.75858956600734,426.0531441506948 L394.0589444230556,425.55894436844414 M394.0589444230556,425.55894436844414 L389.7022225562087,424.4337679069587 M389.7022225562087,424.4337679069587 L385.9417607232761,422.74309749227905 M413.9685776143431,375.4292111750998 L416.91581861186,377.5848493778769 M416.91581861186,377.5848493778769 L418.8777644876446,380.0822794455478 M418.8777644876446,380.0822794455478 L419.74025258469686,382.7764503537684 M419.74025258469686,382.7764503537684 L419.4529644940742,385.5108297568233 M419.4529644940742,385.5108297568233 L418.03238445622947,388.1264905217422 M418.03238445622947,388.1264905217422 L415.5608970007836,390.47135153596304 M415.5608970007836,390.47135153596304 L412.18203972058643,392.4090309016198 M412.18203972058643,392.4090309016198 L408.0921786793545,393.8267971635988 M408.0921786793545,393.8267971635988 L403.5290997626816,394.64214663888276 M403.5290997626816,394.64214663888276 L398.75816580034785,394.8076257975672 M398.75816580034785,394.8076257975672 L394.0568564492965,394.3136043764448 M394.0568564492965,394.3136043764448 L389.6985918971791,393.18883401597776 M389.6985918971791,393.18883401597776 L385.93679865614473,391.4987738401165" stroke="black"  stroke-width="4"  fill="red"/></svg>